<mxfile host="app.diagrams.net" modified="2024-01-20T13:43:51.442Z" agent="Mozilla/5.0 (Windows NT 10.0; Win64; x64) AppleWebKit/537.36 (KHTML, like Gecko) Chrome/120.0.0.0 Safari/537.36 Edg/120.0.0.0" etag="BxIE97TofXIx9dTfGhRK" version="22.1.21" type="device">
  <diagram name="Page-1" id="VWjsB7JAFNQGy-K37FE8">
    <mxGraphModel dx="996" dy="617" grid="1" gridSize="10" guides="1" tooltips="1" connect="1" arrows="1" fold="1" page="1" pageScale="1" pageWidth="827" pageHeight="1169" math="0" shadow="0">
      <root>
        <mxCell id="0" />
        <mxCell id="1" parent="0" />
        <mxCell id="JqcaHMiGDKyDjXfPVq8a-3" value="" style="edgeStyle=orthogonalEdgeStyle;rounded=0;orthogonalLoop=1;jettySize=auto;html=1;" edge="1" parent="1" source="JqcaHMiGDKyDjXfPVq8a-1" target="JqcaHMiGDKyDjXfPVq8a-2">
          <mxGeometry relative="1" as="geometry" />
        </mxCell>
        <mxCell id="JqcaHMiGDKyDjXfPVq8a-1" value="Begin" style="ellipse;whiteSpace=wrap;html=1;" vertex="1" parent="1">
          <mxGeometry x="90" y="100" width="120" height="80" as="geometry" />
        </mxCell>
        <mxCell id="JqcaHMiGDKyDjXfPVq8a-5" value="" style="edgeStyle=orthogonalEdgeStyle;rounded=0;orthogonalLoop=1;jettySize=auto;html=1;" edge="1" parent="1" source="JqcaHMiGDKyDjXfPVq8a-2" target="JqcaHMiGDKyDjXfPVq8a-4">
          <mxGeometry relative="1" as="geometry" />
        </mxCell>
        <mxCell id="JqcaHMiGDKyDjXfPVq8a-2" value="n&lt;br&gt;a[n]" style="shape=parallelogram;perimeter=parallelogramPerimeter;whiteSpace=wrap;html=1;fixedSize=1;" vertex="1" parent="1">
          <mxGeometry x="90" y="270" width="120" height="60" as="geometry" />
        </mxCell>
        <mxCell id="JqcaHMiGDKyDjXfPVq8a-7" value="" style="edgeStyle=orthogonalEdgeStyle;rounded=0;orthogonalLoop=1;jettySize=auto;html=1;" edge="1" parent="1" source="JqcaHMiGDKyDjXfPVq8a-4" target="JqcaHMiGDKyDjXfPVq8a-6">
          <mxGeometry relative="1" as="geometry" />
        </mxCell>
        <mxCell id="JqcaHMiGDKyDjXfPVq8a-4" value="i = 0" style="whiteSpace=wrap;html=1;" vertex="1" parent="1">
          <mxGeometry x="90" y="410" width="120" height="60" as="geometry" />
        </mxCell>
        <mxCell id="JqcaHMiGDKyDjXfPVq8a-9" value="" style="edgeStyle=orthogonalEdgeStyle;rounded=0;orthogonalLoop=1;jettySize=auto;html=1;" edge="1" parent="1" source="JqcaHMiGDKyDjXfPVq8a-6" target="JqcaHMiGDKyDjXfPVq8a-8">
          <mxGeometry relative="1" as="geometry" />
        </mxCell>
        <mxCell id="JqcaHMiGDKyDjXfPVq8a-17" value="" style="edgeStyle=orthogonalEdgeStyle;rounded=0;orthogonalLoop=1;jettySize=auto;html=1;" edge="1" parent="1" source="JqcaHMiGDKyDjXfPVq8a-6" target="JqcaHMiGDKyDjXfPVq8a-16">
          <mxGeometry relative="1" as="geometry" />
        </mxCell>
        <mxCell id="JqcaHMiGDKyDjXfPVq8a-6" value="i &amp;lt; n / 2" style="rhombus;whiteSpace=wrap;html=1;" vertex="1" parent="1">
          <mxGeometry x="110" y="540" width="80" height="80" as="geometry" />
        </mxCell>
        <mxCell id="JqcaHMiGDKyDjXfPVq8a-13" value="" style="edgeStyle=orthogonalEdgeStyle;rounded=0;orthogonalLoop=1;jettySize=auto;html=1;" edge="1" parent="1" source="JqcaHMiGDKyDjXfPVq8a-8">
          <mxGeometry relative="1" as="geometry">
            <mxPoint x="150" y="840" as="targetPoint" />
          </mxGeometry>
        </mxCell>
        <mxCell id="JqcaHMiGDKyDjXfPVq8a-8" value="YES" style="whiteSpace=wrap;html=1;" vertex="1" parent="1">
          <mxGeometry x="90" y="710" width="120" height="60" as="geometry" />
        </mxCell>
        <mxCell id="JqcaHMiGDKyDjXfPVq8a-15" value="End" style="ellipse;whiteSpace=wrap;html=1;" vertex="1" parent="1">
          <mxGeometry x="90" y="840" width="120" height="80" as="geometry" />
        </mxCell>
        <mxCell id="JqcaHMiGDKyDjXfPVq8a-22" value="" style="edgeStyle=orthogonalEdgeStyle;rounded=0;orthogonalLoop=1;jettySize=auto;html=1;" edge="1" parent="1" source="JqcaHMiGDKyDjXfPVq8a-16" target="JqcaHMiGDKyDjXfPVq8a-21">
          <mxGeometry relative="1" as="geometry" />
        </mxCell>
        <mxCell id="JqcaHMiGDKyDjXfPVq8a-26" value="" style="edgeStyle=orthogonalEdgeStyle;rounded=0;orthogonalLoop=1;jettySize=auto;html=1;" edge="1" parent="1" source="JqcaHMiGDKyDjXfPVq8a-16" target="JqcaHMiGDKyDjXfPVq8a-25">
          <mxGeometry relative="1" as="geometry" />
        </mxCell>
        <mxCell id="JqcaHMiGDKyDjXfPVq8a-16" value="a[i] = a[n - i - 1]" style="rhombus;whiteSpace=wrap;html=1;" vertex="1" parent="1">
          <mxGeometry x="290" y="532.5" width="100" height="95" as="geometry" />
        </mxCell>
        <mxCell id="JqcaHMiGDKyDjXfPVq8a-18" value="false" style="text;html=1;align=center;verticalAlign=middle;resizable=0;points=[];autosize=1;strokeColor=none;fillColor=none;" vertex="1" parent="1">
          <mxGeometry x="195" y="548" width="50" height="30" as="geometry" />
        </mxCell>
        <mxCell id="JqcaHMiGDKyDjXfPVq8a-19" value="true" style="text;html=1;align=center;verticalAlign=middle;resizable=0;points=[];autosize=1;strokeColor=none;fillColor=none;" vertex="1" parent="1">
          <mxGeometry x="150" y="650" width="40" height="30" as="geometry" />
        </mxCell>
        <mxCell id="JqcaHMiGDKyDjXfPVq8a-21" value="NO" style="whiteSpace=wrap;html=1;" vertex="1" parent="1">
          <mxGeometry x="280" y="710" width="120" height="60" as="geometry" />
        </mxCell>
        <mxCell id="JqcaHMiGDKyDjXfPVq8a-23" value="" style="endArrow=classic;html=1;rounded=0;exitX=0.5;exitY=1;exitDx=0;exitDy=0;entryX=1;entryY=0.5;entryDx=0;entryDy=0;" edge="1" parent="1" source="JqcaHMiGDKyDjXfPVq8a-21" target="JqcaHMiGDKyDjXfPVq8a-15">
          <mxGeometry width="50" height="50" relative="1" as="geometry">
            <mxPoint x="300" y="830" as="sourcePoint" />
            <mxPoint x="220" y="880" as="targetPoint" />
            <Array as="points">
              <mxPoint x="340" y="880" />
            </Array>
          </mxGeometry>
        </mxCell>
        <mxCell id="JqcaHMiGDKyDjXfPVq8a-24" value="false" style="text;html=1;align=center;verticalAlign=middle;resizable=0;points=[];autosize=1;strokeColor=none;fillColor=none;" vertex="1" parent="1">
          <mxGeometry x="335" y="648" width="50" height="30" as="geometry" />
        </mxCell>
        <mxCell id="JqcaHMiGDKyDjXfPVq8a-25" value="i = i + 1" style="whiteSpace=wrap;html=1;" vertex="1" parent="1">
          <mxGeometry x="460" y="550" width="120" height="60" as="geometry" />
        </mxCell>
        <mxCell id="JqcaHMiGDKyDjXfPVq8a-27" value="true" style="text;html=1;align=center;verticalAlign=middle;resizable=0;points=[];autosize=1;strokeColor=none;fillColor=none;" vertex="1" parent="1">
          <mxGeometry x="400" y="558" width="40" height="30" as="geometry" />
        </mxCell>
        <mxCell id="JqcaHMiGDKyDjXfPVq8a-28" value="" style="endArrow=classic;html=1;rounded=0;" edge="1" parent="1">
          <mxGeometry width="50" height="50" relative="1" as="geometry">
            <mxPoint x="510" y="550" as="sourcePoint" />
            <mxPoint x="150" y="510" as="targetPoint" />
            <Array as="points">
              <mxPoint x="510" y="510" />
            </Array>
          </mxGeometry>
        </mxCell>
      </root>
    </mxGraphModel>
  </diagram>
</mxfile>
